<?xml version="1.0" encoding="utf-8"?>
<!-- Generator: Adobe Illustrator 23.0.1, SVG Export Plug-In . SVG Version: 6.00 Build 0)  -->
<svg version="1.1" id="Layer_1" xmlns:vectornator="http://vectornator.io"
	 xmlns="http://www.w3.org/2000/svg" xmlns:xlink="http://www.w3.org/1999/xlink" x="0px" y="0px" viewBox="0 0 574 452"
	 style="enable-background:new 0 0 574 452;" xml:space="preserve">
<style type="text/css">
	
		.st0{fill-rule:evenodd;clip-rule:evenodd;fill:url(#SVGID_1_);stroke:#000000;stroke-width:3;stroke-linecap:round;stroke-linejoin:round;}
	
		.st1{fill-rule:evenodd;clip-rule:evenodd;fill:#32170C;stroke:#000000;stroke-width:2.81;stroke-linecap:round;stroke-linejoin:round;}
	
		.st2{fill-rule:evenodd;clip-rule:evenodd;fill:#32170C;stroke:#000000;stroke-width:2.54;stroke-linecap:round;stroke-linejoin:round;}
	
		.st3{fill-rule:evenodd;clip-rule:evenodd;fill:#8C7065;stroke:#000000;stroke-width:2;stroke-linecap:round;stroke-linejoin:round;}
	.st4{fill-rule:evenodd;clip-rule:evenodd;stroke:#000000;stroke-width:2;stroke-linecap:round;stroke-linejoin:round;}
	.st5{fill:none;stroke:#000000;stroke-width:2;stroke-linecap:round;stroke-linejoin:round;}
</style>
<g vectornator:layerName="Layer 2">
	
		<radialGradient id="SVGID_1_" cx="500.4699" cy="-5.5506" r="455.4356" gradientTransform="matrix(0.5977 0 0 -0.5977 -10.4598 220.9185)" gradientUnits="userSpaceOnUse">
		<stop  offset="0.2475" style="stop-color:#B2663C"/>
		<stop  offset="0.7521" style="stop-color:#643307"/>
	</radialGradient>
	<path class="st0" d="M40,6.5c24.9-3.7,14.5,56.2,14.5,56.2s74.8,67.1,88.3,85.9c13.5,18.9,12.2,32.6,12.2,32.6
		c13.2-0.9,23.1-24.1,36.8-31.6c28-15.3,6-33.5,6-33.5s29.4,24.8,38,23.6s22.5-39.1,22.5-39.1s-4.3,47.5,10.2,35.9
		c14.5-11.6,14.8-30.1,23.6-45c4.2-7.2-3.4,51.9,10.7,44.5c14.1-7.5,36.9-28.3,41.2-33.1c9.1-10.2-24.4,31.3-9.3,28.6
		s19.5-4,35.6-10.4c5.6-2.3-15.8,23.3,0.8,23.9c16.6,0.6,39.1,34.3,39.1,34.3s15-37.8,30.5-50.2c17.9-14.3,77.9-63.9,77.9-63.9
		s-0.8-41.8,9.6-48.1c29.3-18,17.1,0.6,25.4,15.7c8.3,15.1,8.3,25,6,39.1s-83.3,71.4-92.6,87.2c-9.3,15.8,6,37,10.6,63.4
		c4.9,28.5-7,44.9-2,58.1c9.9,25.8-15.1,70-15.1,70s-2-33.8-9.5-32.5s-12.2,59.2-12.2,59.2s-0.5-13.5-5.1-19.4
		c-4.6-6-36.1,43.2-36.1,43.2s5.1-10.7-0.3-12.6c-4-1.4-27.1,49.3-102.7,53.4c-93.7,5-123.3-71.2-119.9-38
		c0.8,7.5-31-30.1-41.1-47.2c-7.4-12.5-13.5,23-13.5,23s2.8-67.1-1.5-68s-21,39.1-21,39.1s-20.5-39.2-8.1-60.6s4.7-41.8,20.5-68.5
		c11.9-20.2,14.6-40.8,4.8-54.2C105,154.1,26,103,20.6,76.6s-6.4-25.1,2.1-42.4C31.2,16.8,15.2,10.2,40,6.5z"/>
</g>
<g vectornator:layerName="Layer 3">
	<path class="st1" d="M480.8,228.6c-2.2-23.6-24.3-53.3-18.1-66.9c9.9-21.4,67.6-55,78-65.3c17.1-16.9,18.5-58.1,24.3-20.5
		c1.7,11.1-23,30.9-22.8,43.5c0.3,12.5-3.3,9.2,6.1,24c5.3,8.3,15.3,18.4,15.6,29.4s-20,71-34.5,81.8
		c-14.6,10.7-58.6,18.2-58.6,18.2S481.9,240.5,480.8,228.6z"/>
	<path class="st2" d="M17.2,58.6c0,0-2.6-5.7-5,19.2c-2.5,24.9,19.9,33.3,20.4,45.6c0.5,12.4-19,45.7-17.7,61.2S31,225.2,45,241
		c14,15.9,48.8,32.8,48.8,32.8s3.1-30.6,15.2-51.9c10.4-18.4,11.5-32.8,10.6-41.4c-2-19-36.3-35.9-48.2-45.8S30.3,93.3,25.1,81.1
		C19.7,69.2,17.2,58.6,17.2,58.6z"/>
</g>
<g vectornator:layerName="Layer 4">
	<path class="st3" d="M230.3,182.6c2.5-4.7,15.4-31.5,15.4-31.5s-1.9,38.2,7.2,29c9.2-9.2,29-29,29-29s-10.1,40.6-2.1,30.6
		s40-33,40-33s-10.1,43.4,0.8,36.8s28.7-25.8,35.1-29.6c6.4-3.7-27.3,45.2-14,37.2s41.3,30.6,41.3,30.6s-19.8,0.9-22.7,10
		c-3,9.1,15.7,29.1,15.7,29.1s-23.4,6.2-30.2,24.4c-6.8,18.2,5.3,36.9,5.3,36.9s-34.2-22.6-37.2-10.1s-7.5,35-7.5,35l-34.4-2
		c0,0-2-28.9-11.1-31.5s-33.4,8.3-33.4,8.3s5.3-18.4,11.3-26.1s-26.4-15.7-27.4-10.5s-1.6-30,4.8-35.7c9.4-8.3-26.8,6.2-26.8,6.2
		l25.2-36.2L190.9,200C190.9,200,216.4,208.6,230.3,182.6z"/>
	<path class="st4" d="M378.8,296.3c0-8.5,7.5-15.4,16.7-15.4s16.7,6.9,16.7,15.4s-7.5,15.4-16.7,15.4
		C386.3,311.7,378.8,304.8,378.8,296.3z"/>
	<path class="st4" d="M170.3,300.1c0-8.5,7.5-15.4,16.7-15.4s16.7,6.9,16.7,15.4s-7.5,15.4-16.7,15.4S170.3,308.6,170.3,300.1z"/>
	<path class="st4" d="M284,329.2c16.2-1.3,42.2,5.6,47.3,11.8c5.1,6.2-9.1,25.7-12.8,23.3c-3.7-2.4,1.4-17.3-9.5-14.9
		c-17.8,3.8-1.1,18.3-3.9,18.2c-12.2-0.4-8.5-7.6-13-6.5s-12.3,13.4-19.7,9.2c-3.5-1.9,13.3-13.7,3.1-18.9
		c-17.1-8.8-8.3,17.5-15,13.6s-13.8-10.7-8.8-21.2C256.6,333.3,267.8,330.5,284,329.2z"/>
	<path class="st5" d="M239.4,392.5c0,0,8.1,8,23,5.2s29.6-15.3,29.6-15.3s14.3,7.7,30.3,10.1c16.5,2.5,31.9-7.9,31.9-7.9"/>
</g>
</svg>
