<?xml version="1.0" encoding="utf-8"?>
<!-- Generator: Adobe Illustrator 23.0.1, SVG Export Plug-In . SVG Version: 6.00 Build 0)  -->
<svg version="1.1" id="Layer_1" xmlns:vectornator="http://vectornator.io"
	 xmlns="http://www.w3.org/2000/svg" xmlns:xlink="http://www.w3.org/1999/xlink" x="0px" y="0px" viewBox="0 0 612 544"
	 style="enable-background:new 0 0 612 544;" xml:space="preserve">
<style type="text/css">
	
		.st0{fill-rule:evenodd;clip-rule:evenodd;fill:url(#SVGID_1_);stroke:#000000;stroke-width:4;stroke-linecap:round;stroke-linejoin:round;}
	
		.st1{fill-rule:evenodd;clip-rule:evenodd;fill:#9E5930;stroke:#000000;stroke-width:3.41;stroke-linecap:round;stroke-linejoin:round;}
	
		.st2{fill-rule:evenodd;clip-rule:evenodd;fill:#713A19;stroke:#000000;stroke-width:4;stroke-linecap:round;stroke-linejoin:round;}
	
		.st3{fill-rule:evenodd;clip-rule:evenodd;fill:#FFE7A6;stroke:#000000;stroke-width:2.52;stroke-linecap:round;stroke-linejoin:round;}
	
		.st4{fill-rule:evenodd;clip-rule:evenodd;fill:url(#SVGID_2_);stroke:#000000;stroke-width:4;stroke-linecap:round;stroke-linejoin:round;}
	.st5{fill-rule:evenodd;clip-rule:evenodd;stroke:#000000;stroke-width:2.52;stroke-linecap:round;stroke-linejoin:round;}
	.st6{fill-rule:evenodd;clip-rule:evenodd;stroke:#000000;stroke-width:5.16;stroke-linecap:round;stroke-linejoin:round;}
	
		.st7{fill-rule:evenodd;clip-rule:evenodd;fill:#EFA86A;stroke:#EFA86A;stroke-width:3.33;stroke-linecap:round;stroke-linejoin:round;}
	.st8{fill-rule:evenodd;clip-rule:evenodd;stroke:#000000;stroke-width:3;stroke-linecap:round;stroke-linejoin:round;}
</style>
<g vectornator:layerName="Layer 1">
	
		<radialGradient id="SVGID_1_" cx="498.9125" cy="378.4146" r="362.9366" gradientTransform="matrix(0.5977 0 0 0.5977 0 47.3216)" gradientUnits="userSpaceOnUse">
		<stop  offset="8.333330e-03" style="stop-color:#EFA86A"/>
		<stop  offset="0.9917" style="stop-color:#9E5930"/>
	</radialGradient>
	<path class="st0" d="M181,85.4c0,0-25.5-22.3-48.2-10c-22.7,12.4-10.8,25.9-13.5,31.2c-2.6,5.3-10.1,2.9-15.6,13.4
		c-5.1,9.5,8,31,18.7,30.3c10.4-0.7-15.8,65.4-16.3,105.5c-0.3,26.2-24.8,50.5-24.8,50.5l24.8-5l-23.8,42.6l25.8-23.8l-13.4,42.1
		l21.8-34.2l-5.9,53l14.9-36.2c0,0,8.5,46.6,51.3,88.3c22.6,22.1,82,52.3,90.6,61c8.9,8.9,33.8,33.2,33.8,33.2s18.7-25.2,35.7-37.3
		c26.7-19,71.7-38.1,90.2-59.8c30.3-35.5,42-97.5,42-97.5l-0.8,42.6l13.9-46.2l8.4,31.1l3.7-50l17.2,18.8l-19.2-47.6l22.8,21.8
		c0,0-21.8-25.6-21.8-65.9c0-54.5-13.5-91.3-13.5-91.3s21.5-20.7,18.7-34.3s-12-8.5-14.7-13.6c-2.5-4.9,4.5-10.7-6.4-20.3
		c-16.5-14.5-43.8,5.6-43.8,5.6l-96-42.2l15.9-9.2l-41.8,5.2L336,19.7l-40.1,17.8L310.2,20l-37.3,19.1c0,0-33.2,15.7-52.4,26.1
		C201.5,75.5,181,85.4,181,85.4z"/>
	<path class="st1" d="M7.2,119.5"/>
</g>
<g vectornator:layerName="Layer 2">
	<path class="st2" d="M238.8,407.9c0,0,42.2,41.5,60.8,40.4s56.8-37.1,60.8-45.1c4.1-8-61.6-61.9-61.6-61.9L238.8,407.9z"/>
	<path class="st3" d="M275.5,385.3l-2.8,39.3l26.6,0.6l2-53.7l2.5,53l23-0.6l1-39.1l-30.5-39L275.5,385.3z"/>
	
		<radialGradient id="SVGID_2_" cx="499.824" cy="475.339" r="154.698" gradientTransform="matrix(0.5977 0 0 0.5977 0 47.3216)" gradientUnits="userSpaceOnUse">
		<stop  offset="2.083330e-03" style="stop-color:#714004"/>
		<stop  offset="0.7167" style="stop-color:#CC8F5B"/>
	</radialGradient>
	<path class="st4" d="M301.7,243.3c36.9-0.3,87.5,39.8,89.4,100.3c2,60.5-26.9,68.4-26.9,68.4s-24.2-1-36.1-17.4
		s-27.2-37.1-27.2-37.1s-12.2,21.6-28.5,33.8c-14.7,11.1-32.8,20.7-32.8,20.7s-29.5-22-32.4-55.5
		C202.4,300.9,258.1,243.6,301.7,243.3z"/>
	<path class="st5" d="M280.6,287.9c-4.9-3.3-9.3-5.1-15.2-5.7c-1.5-0.2-7.4,1.6-6.9,2c0.7,0.4-1.3,1-1.9,1.7
		c-1.2,1.2-2.5,2.5-3.2,4.1c-1.5,3.3-2,9.1,0.9,11.9c4.3,4.2,20.4,9.7,20.5,0c0.1-5.4-4.7-1.6-4.2-5.7l1.8-2.2
		c0.1-0.6-0.1-0.6,0.8-0.6c5.4,0.4,7.8,5.7,6.1,10.4c-4.4,12.3-25.1,8.6-29-2.3c-7.9-21.7,18.8-28.8,32.7-16.6"/>
	<path class="st5" d="M314.5,288.5c3.8-7.8,13.5-10.9,18.6-10.8c8.5,0.2,21.1,8.5,18.2,18.9c-2.7,9.6-16.6,14-24.2,8.4
		c-3.2-2.4-5.8-6.3-3.6-10.4c1.8-3.3,7.4-2,6.8-1.3l-0.9,2.1c-2,0.8-0.4-1-1.8-1.1c-3.8-0.1-0.2,6.4,0.9,7.2
		c5.5,3.5,20,1.7,19.7-7.9c-0.1-3-2.3-5.5-3.9-7.8c-8.5-11.8-20.6-3.4-27.3,3.9"/>
	<path class="st6" d="M364,186.7c-3.1-6.1-1.2-13.5,10.9-22.4c12.1-9,25.5-10.6,30.3-3.3c4.8,7.3,1.2,24.1-14.1,30.6
		C375.7,198.1,367,192.6,364,186.7z"/>
	<path class="st6" d="M233.5,187.6c3.1-6.1,1.2-13.5-10.9-22.4c-12.1-9-25.5-10.6-30.3-3.3c-4.8,7.3-1.2,24.1,14.1,30.6
		C221.8,199,230.5,193.5,233.5,187.6z"/>
	<path class="st7" d="M291.7,125.7l-6.4-46.1c0,0,9.2,32.7,18.2,37.7c3.2,1.8,28.4-18.8,28.4-18.8l-12.1,34l24.6,8.4
		c0,0-21.9,8.2-27.1,20.4c-5.2,12.2,6.1,28.4,6.1,28.4l-21.8-6.8l-2.7,37.1l-11.7-40.6l-23,20c0,0,18.9-19.3,18.1-44.3
		s-19.9-34-19.9-34L291.7,125.7z"/>
	<path class="st8" d="M134.1,145.2c0,0-25.8-4.7-23.9-18.8c1-7.6,15.9-7,18.2-13.8c2.2-6.8-7.9-22.6,3.2-28
		c11.2-5.4,23.8-3.2,32.5,0.8c8.7,3.9,14.4,10.6,14.4,10.6s-19.2,11.3-29.3,23.1C142.1,127.1,134.1,145.2,134.1,145.2z"/>
	<path class="st8" d="M437.7,92c0,0,25.4-15.3,32.6-9.6s1.6,13.4,5.6,18.1c4.1,4.7,12,6.6,13.5,12c1.6,5.4-0.2,13.8-4.2,18
		s-11.3,11.9-11.3,11.9s-4.1-17.5-11.5-28.6C455.1,102.6,437.7,92,437.7,92z"/>
</g>
</svg>
