<?xml version="1.0" encoding="utf-8"?>
<!-- Generator: Adobe Illustrator 23.0.1, SVG Export Plug-In . SVG Version: 6.00 Build 0)  -->
<svg version="1.1" id="Layer_1" xmlns:vectornator="http://vectornator.io"
	 xmlns="http://www.w3.org/2000/svg" xmlns:xlink="http://www.w3.org/1999/xlink" x="0px" y="0px" viewBox="0 0 612 483.5"
	 style="enable-background:new 0 0 612 483.5;" xml:space="preserve">
<style type="text/css">
	
		.st0{fill-rule:evenodd;clip-rule:evenodd;fill:url(#SVGID_1_);stroke:#000000;stroke-width:5;stroke-linecap:round;stroke-linejoin:round;}
	.st1{fill-rule:evenodd;clip-rule:evenodd;stroke:#000000;stroke-width:6.08;stroke-linecap:round;stroke-linejoin:round;}
	
		.st2{fill-rule:evenodd;clip-rule:evenodd;fill:#EFD897;stroke:#000000;stroke-width:2.73;stroke-linecap:round;stroke-linejoin:round;}
	
		.st3{fill-rule:evenodd;clip-rule:evenodd;fill:url(#SVGID_2_);stroke:#000000;stroke-width:5;stroke-linecap:round;stroke-linejoin:round;}
	
		.st4{fill-rule:evenodd;clip-rule:evenodd;fill:url(#SVGID_3_);stroke:#000000;stroke-width:3.25;stroke-linecap:round;stroke-linejoin:round;}
	.st5{fill-rule:evenodd;clip-rule:evenodd;fill:#6F4626;}
	
		.st6{fill-rule:evenodd;clip-rule:evenodd;fill:url(#SVGID_4_);stroke:#000000;stroke-width:6.08;stroke-linecap:round;stroke-linejoin:round;}
	
		.st7{fill-rule:evenodd;clip-rule:evenodd;fill:url(#SVGID_5_);stroke:#000000;stroke-width:6.08;stroke-linecap:round;stroke-linejoin:round;}
	.st8{fill-rule:evenodd;clip-rule:evenodd;stroke:#000000;stroke-width:3;stroke-linecap:round;stroke-linejoin:round;}
	
		.st9{fill-rule:evenodd;clip-rule:evenodd;fill:#7F6F63;stroke:#000000;stroke-width:2;stroke-linecap:round;stroke-linejoin:round;}
</style>
<g vectornator:layerName="Layer 4">
	
		<linearGradient id="SVGID_1_" gradientUnits="userSpaceOnUse" x1="534.4805" y1="755.4069" x2="526.1785" y2="524.9559" gradientTransform="matrix(0.6054 0 0 0.5977 -3.3665 27.7664)">
		<stop  offset="0" style="stop-color:#7F5D43"/>
		<stop  offset="0.9812" style="stop-color:#000000"/>
	</linearGradient>
	<path class="st0" d="M308,369.7l-49.3,52.8c0,0,26.4,36.1,55.4,37.1c30.4,1,63.1-47.3,63.1-47.3L308,369.7z"/>
	<path class="st1" d="M276.2,405c0,0,16.6,31.5,36.7,30.4s43.8-34.9,43.8-34.9L305,365.9L276.2,405z"/>
	<path class="st2" d="M294.6,429.3l4.1-19.2l9.6,0.6l1.7,18.5l2.2-18.3l9.7-1.2l4.8,21.7c0,0-7.7,3.8-15.1,5.2
		C304.2,438,294.6,429.3,294.6,429.3z"/>
</g>
<g vectornator:layerName="Layer 2">
	
		<linearGradient id="SVGID_2_" gradientUnits="userSpaceOnUse" x1="508.0856" y1="47.1945" x2="517.8497" y2="919.9466" gradientTransform="matrix(0.5977 0 0 0.5977 0 27.7664)">
		<stop  offset="0" style="stop-color:#7F5D43"/>
		<stop  offset="0.9792" style="stop-color:#B6A089"/>
	</linearGradient>
	<path class="st3" d="M305.1,47.4c-31,1.5-58.8-17.1-78-9.8S164,66.2,164,66.2s-24.7-30.8-47.6-8.4C87.1,86.4,132,113,132,113
		s-3.2,23.7-4.5,40c-1.5,18.1-35.4,48.7-59.7,91.7S30.1,360.8,30.1,360.8l21.3-22.7l-9,47.2l17.1-23.6l9.3,51l3-25.8
		c0,0,13.3,45.1,46.7,56s79.3-10.9,89.3-14.6c10-3.7,43.6,14.5,57.4,9.8c36.6-12.6,44.1-46.8,44.1-46.8s14.2,44.5,41.5,49.3
		c15.3,2.7,41.9-17.6,54.8-11.9s56.1,15,76.5,5.1c20.4-10,46.7-44.6,46.7-44.6l-1.8,21.5l25-43.1l5.9,28.6l11.2-61.9l14.9,23
		c0,0,0.8-41-10.1-73c-10.9-32-20-47.7-29.7-61.8c-9.7-14.1-51.5-60.9-51.5-60.9s-4.3-26.9-6.7-39.9c-2.8-14.9-11.1-24.6-11.1-24.6
		s45.7-22.7,18.6-54.1c-17.3-20.1-59.7,9-59.7,9s-21.2-18.4-43.7-19.9C367.7,30.6,336.1,45.9,305.1,47.4z"/>
	
		<radialGradient id="SVGID_3_" cx="500.4959" cy="403.2136" r="160.2567" gradientTransform="matrix(0.5977 0 0 0.6641 0 12.4913)" gradientUnits="userSpaceOnUse">
		<stop  offset="0" style="stop-color:#000000"/>
		<stop  offset="0.9792" style="stop-color:#B6A089"/>
	</radialGradient>
	<path class="st4" d="M295.9,183.1c11.8,0.9,45-36.1,76.2-5.3c12.8,12.6,28.9,101.9,20.5,127.8c-8.4,26-32,45.4-46.4,47.2
		c-13.2,1.6-25.1,35.5-36.6,36.5c-11.6,1-36.1-34-50.6-35.8s-45.2-17.1-53.3-49.3c-8.2-32.2,7.4-108.7,13.2-116.7
		C248.6,146.2,283.7,182.1,295.9,183.1z"/>
	<path class="st5" d="M214.2,166.6c0,0,5.9-61.1-10.2-71.7c-16.1-10.6-56,0-64.6,20.8s40.7,54.4,40.7,54.4L214.2,166.6z"/>
	<path class="st5" d="M398.7,164.7c0,0-5.9-61.1,10.2-71.7s56,0,64.6,20.8s-40.7,54.4-40.7,54.4L398.7,164.7z"/>
</g>
<g vectornator:layerName="Layer 3">
	
		<radialGradient id="SVGID_4_" cx="340.639" cy="233.3266" r="52.4087" gradientTransform="matrix(0.5977 0 0 0.5977 0 27.7664)" gradientUnits="userSpaceOnUse">
		<stop  offset="0" style="stop-color:#FFFFFF"/>
		<stop  offset="0.9812" style="stop-color:#000000"/>
	</radialGradient>
	<path class="st6" d="M158.8,122.7c12.6-10.4,32.7-5.5,43.1,8.7s17.5,39.3,6.5,44.7c-10.9,5.5-34.4-7.1-40.4-16.4
		C162.1,150.5,146.3,133.1,158.8,122.7z"/>
	
		<radialGradient id="SVGID_5_" cx="686.134" cy="230.3226" r="50.7741" gradientTransform="matrix(0.5977 0 0 0.5977 0 27.7664)" gradientUnits="userSpaceOnUse">
		<stop  offset="0" style="stop-color:#FFFFFF"/>
		<stop  offset="0.9812" style="stop-color:#000000"/>
	</radialGradient>
	<path class="st7" d="M453.5,120.8c-12.5-10.4-32.7-5.5-43.1,8.7s-17.5,39.3-6.5,44.7c10.9,5.5,34.4-7.1,40.4-16.4
		C450.3,148.6,466.1,131.1,453.5,120.8z"/>
	<path class="st8" d="M295.9,219.4c32.2-0.5,58.9,16.8,63.2,37.5c4.4,20.7-7.1,24-7.1,24l-21.2,1.8c0,0,18.7-20.4,5.1-25.5
		c-13.6-5.1-7.4,28.3-12.3,35.1c-4.9,6.8-17.8,9.3-22.5,9.1c-4.7-0.2-20.8-3.6-23.4-7S276,281,276,281s-9.5-33.8-19.1-26.4
		c-11.1,8.5,13.4,30.2,13.4,30.2s-19.8-2.1-23.6-5.1s-6.8-16.6-3.6-26.6C246.4,243,263.7,220,295.9,219.4z"/>
	<path class="st9" d="M133,58.8c-13.6,3.6-13.9,21.9-13.9,21.9s9.2-3.2,13.1,4.5c3.9,7.6,2.3,18.3,2.3,18.3s6-2.5,12.2-9.8
		C161,77,146.6,55.3,133,58.8z"/>
	<path class="st9" d="M474.7,46.6c15.2,3.6,15.1,17.7,14.5,21.1c-0.7,3.4-14.9-2.2-19.3,5.4c-4.4,7.6,0.9,19.8,0.9,19.8
		S459,81.7,452,74.4C436,57.7,459.5,43.1,474.7,46.6z"/>
</g>
</svg>
