<?xml version="1.0" encoding="utf-8"?>
<!-- Generator: Adobe Illustrator 23.0.1, SVG Export Plug-In . SVG Version: 6.00 Build 0)  -->
<svg version="1.1" id="Layer_1" xmlns:vectornator="http://vectornator.io"
	 xmlns="http://www.w3.org/2000/svg" xmlns:xlink="http://www.w3.org/1999/xlink" x="0px" y="0px" viewBox="0 0 589 482"
	 style="enable-background:new 0 0 589 482;" xml:space="preserve">
<style type="text/css">
	
		.st0{fill-rule:evenodd;clip-rule:evenodd;fill:#ECB3B3;stroke:#000000;stroke-width:7.41;stroke-linecap:round;stroke-linejoin:round;}
	
		.st1{fill-rule:evenodd;clip-rule:evenodd;fill:#FFFADA;stroke:#000000;stroke-width:4.05;stroke-linecap:round;stroke-linejoin:round;}
	
		.st2{fill-rule:evenodd;clip-rule:evenodd;fill:url(#SVGID_1_);stroke:#000000;stroke-width:5;stroke-linecap:round;stroke-linejoin:round;}
	.st3{fill-rule:evenodd;clip-rule:evenodd;stroke:#000000;stroke-width:4.47;stroke-linecap:round;stroke-linejoin:round;}
	
		.st4{fill-rule:evenodd;clip-rule:evenodd;fill:#ECB3B3;stroke:#000000;stroke-width:4.47;stroke-linecap:round;stroke-linejoin:round;}
	.st5{fill-rule:evenodd;clip-rule:evenodd;fill:url(#SVGID_2_);}
	
		.st6{fill-rule:evenodd;clip-rule:evenodd;fill:url(#SVGID_3_);stroke:#000000;stroke-width:7.41;stroke-linecap:round;stroke-linejoin:round;}
	.st7{fill-rule:evenodd;clip-rule:evenodd;fill:url(#SVGID_4_);}
	.st8{fill-rule:evenodd;clip-rule:evenodd;fill:url(#SVGID_5_);}
	
		.st9{fill-rule:evenodd;clip-rule:evenodd;fill:url(#SVGID_6_);stroke:#000000;stroke-width:7.41;stroke-linecap:round;stroke-linejoin:round;}
	.st10{fill-rule:evenodd;clip-rule:evenodd;fill:#BDBDBD;}
	.st11{fill-rule:evenodd;clip-rule:evenodd;stroke:#000000;stroke-width:7.41;stroke-linecap:round;stroke-linejoin:round;}
	.st12{fill-rule:evenodd;clip-rule:evenodd;stroke:#000000;stroke-width:3.73;stroke-linecap:round;stroke-linejoin:round;}
	.st13{fill-rule:evenodd;clip-rule:evenodd;stroke:#000000;stroke-width:3.27;stroke-linecap:round;stroke-linejoin:round;}
</style>
<g vectornator:layerName="Layer 4">
	<path class="st0" d="M90.9,451.2l198.3-105.6l12.7,10.2L129.1,465L90.9,451.2z"/>
	<path class="st1" d="M123.7,457l-0.1-7.5l12.7,5.3l-1.4-8.4l12.1,7l0-15.4l13.5,6.3l4.8-14.9l12.4,6.1l4.4-13.9l13.1,3.9l5.1-15.1
		l12,4.5l3.4-13.9l11.8,3.4l5.9-13.1l7,2.3l6.2-11.9l10.9,2l0.3,7.4l-122.1,75L123.7,457z"/>
</g>
<g vectornator:layerName="Layer 2">
	
		<radialGradient id="SVGID_1_" cx="333.648" cy="68.372" r="837.747" gradientTransform="matrix(0.5977 0 0 -0.5977 -4.8281 346.0625)" gradientUnits="userSpaceOnUse">
		<stop  offset="0.1514" style="stop-color:#FFFFFF"/>
		<stop  offset="0.6126" style="stop-color:#5B5B5B"/>
	</radialGradient>
	<path class="st2" d="M421.5,122.8l-13.1-54.4c0,0-5.7,4.5-10.9,14.9c-7.6,15.3,4.8-42.1,4.8-42.1s-15.7-0.4-23.3,22.4
		c-7.7,22.7,5.3-37.4,5.3-37.4s-26.6,17.7-28.9,31.6c-2.3,13.9,4.4-27.4,4.4-27.4S346.2,50,330.6,55.5c-15.6,5.5-40.8,23-57.4,15.8
		s-63.5-72.9-92.5-60.8c-29,12.1-37.6,40.7-33.4,66.1c4.2,25.4,23,62.5,23,62.5s-8.5,10.6-15.8,31.7c-1.5,4.4-25.3,28.4-25.3,28.4
		s18.3-6.1,20.8-2.5c2.7,3.9-32.4,31.3-32.4,31.3s18.2-7.6,22.7-2.8c4.6,4.8-3.5,19-3.5,19s-42.7,39.1-56.9,60.2
		c-14.2,21.1-57.4,88-57.4,88s4.6,0.8,23.2,1.6c18.6,0.8,35.7,1,40.6,9.1c4.9,8.1-1.1,36.1-12.2,40.5c-11.1,4.4,28.3,9.3,40.1,5.2
		c11.8-4.1,143.2-77,156.2-83.7c13-6.7,27.8-18.6,27.8-18.6s-26.3,31.1-38.2,38.3c-11.9,7.2-113.4,72.9-127.9,73
		c-14.5,0.1-39.2-6.1-39.2-6.1l-33.9-6.9c0,0,49.1,20.4,70.3,24.5c2.1,0.4,5.3,0,9.5-1.1c39.1-10,160.6-78,167.3-87
		c7.3-10,1.4,20-5.5,25.1c-6.8,5.1,16.1-1.1,22.8-4.9c6.7-3.9,15-9.6,15-9.6L326.9,418c0,0,5.8,2.2,17.6-5
		c11.8-7.3,12.4-15.5,12.4-15.5l4.1,20.7c0,0,15.5-4.5,20.2-21.2c4.7-16.6,23,3,23,3s-1.2-20.6,3-36.4c4.2-15.9,12.3,14.3,12.3,14.3
		s6.2,0,11.4-20.3c5.2-20.3,8-43.1,13.6-46.7c5.6-3.5,8.7,32.6,8.7,32.6l20.5-66.8c0,0,2.3,11.7,9.1,14.3c6.8,2.6-3.8-54.5-3.8-54.5
		l20.1-21.9c0,0,65.3-41.8,71.2-62.4c6-20.6-0.6-41-19-45.9c-18.4-5-48.6-7.3-69.5-3.7C461.1,106.1,421.5,122.8,421.5,122.8z"/>
</g>
<g vectornator:layerName="Layer 3">
	<path class="st3" d="M16,415.6c0,0,7.1-4.1,12.1-0.6s10.5,23.2,14.4,22.6c3.9-0.6,8.8-17.7,16.1-18.7c7.3-1,10.9,0.1,10.7,5.5
		c-0.2,5.4-15.2,19.3-15.2,19.3s-2.9-1.6-6-3.1c-2.4-1.2-4.9-2.3-6.4-2.6c-3.3-0.7-7.5-2.4-10.9-4.4c-3.4-2-6.5-3.7-6.5-3.7
		L16,415.6z"/>
	<path class="st4" d="M23.3,392.3c-4.3,2.1-21,21.9-15.7,27.9c4.2,4.6,23.6,14.5,24.7,14.2c3.2-1.2-25.3-20.9-11.7-21.7
		c13.3-0.8,13.4,25.8,22.3,24.9c8.9-0.9,7.5-24.5,22.4-18.2c8.8,3.7-1.5,15.4-10.3,21.4c-5.9,4,10,6.8,19.9,3
		c9.9-3.8,14-24.1,13.6-34.8c-0.4-10.7-8.9-14.1-37.5-15.4C38.1,393,28.1,390,23.3,392.3z"/>
	
		<radialGradient id="SVGID_2_" cx="310.698" cy="240.71" r="50.4168" gradientTransform="matrix(1.057 -0.1921 0.1399 -1.4499 -185.389 602.7875)" gradientUnits="userSpaceOnUse">
		<stop  offset="0.2604" style="stop-color:#BEBBBB"/>
		<stop  offset="0.425" style="stop-color:#FFFFFF"/>
	</radialGradient>
	<path class="st5" d="M178.6,150.6c7.3-1.6,16.3,14,16.5,33.4c0.1,13.4-10,42.6-22.5,47.5c-12.7,4.9-24-20.7-20.8-40.4
		C155.5,168.9,171.8,152,178.6,150.6z"/>
	
		<radialGradient id="SVGID_3_" cx="309.902" cy="248.796" r="28.4297" gradientTransform="matrix(0.6744 0.2742 0.2718 -0.6803 -103.4122 273.2058)" gradientUnits="userSpaceOnUse">
		<stop  offset="0.1729" style="stop-color:#FFFFFF"/>
		<stop  offset="0.6625" style="stop-color:#000000"/>
	</radialGradient>
	<path class="st6" d="M178.3,173.4c4.7,1.8,9.2,13.2,5.9,22.6c-3.4,9.4-11.6,17.9-19.9,16c-8.4-2-12.1-18.8-7.6-27.6
		C164.2,169.7,173.9,171.8,178.3,173.4z"/>
	
		<radialGradient id="SVGID_4_" cx="310.698" cy="240.71" r="50.4168" gradientTransform="matrix(1.0883 1.2465 1.7954 -0.85 -444.5969 70.6103)" gradientUnits="userSpaceOnUse">
		<stop  offset="0.2604" style="stop-color:#BEBBBB"/>
		<stop  offset="0.425" style="stop-color:#FFFFFF"/>
	</radialGradient>
	<path class="st7" d="M377.7,224.8c7.8,8.4-2.9,31.3-25.2,45.4c-15.4,9.7-57.6,17.3-73.5,4.3c-16.1-13.1,4.3-46.2,29.8-56
		C337.5,207.5,370.4,216.9,377.7,224.8z"/>
	
		<radialGradient id="SVGID_5_" cx="310.698" cy="240.71" r="50.4168" gradientTransform="matrix(1.0883 1.2465 1.7954 -0.85 -444.5969 70.6103)" gradientUnits="userSpaceOnUse">
		<stop  offset="0.2604" style="stop-color:#BEBBBB"/>
		<stop  offset="0.425" style="stop-color:#FFFFFF"/>
	</radialGradient>
	<path class="st8" d="M377.7,224.8c7.8,8.4-2.9,31.3-25.2,45.4c-15.4,9.7-57.6,17.3-73.5,4.3c-16.1-13.1,4.3-46.2,29.8-56
		C337.5,207.5,370.4,216.9,377.7,224.8z"/>
	
		<radialGradient id="SVGID_6_" cx="306.705" cy="248.484" r="40.2845" gradientTransform="matrix(0.4394 0.7367 0.8223 -0.3956 -10.8641 118.4415)" gradientUnits="userSpaceOnUse">
		<stop  offset="0.1042" style="stop-color:#FFFFFF"/>
		<stop  offset="0.4667" style="stop-color:#000000"/>
	</radialGradient>
	<path class="st9" d="M347.5,238.5c3.2,5-2.3,17.2-12.7,24.1c-7.1,4.7-26,7.2-32.6-0.7c-6.7-8,3.4-25.4,15-29.8
		C330.3,227.2,344.6,233.8,347.5,238.5z"/>
	<path class="st10" d="M262.9,147.1c11-16.7,18.4-40.3,18.4-40.3L266.3,169c0,0,27.8-32.6,31.7-33.1c3.9-0.5-21.4,51.3-21.4,51.3
		l29.4-23.9l-32.5,48.9l17.6,2c0,0-22.6,17.1-30.4,31.7c-7.8,14.6-0.8,26.8-0.8,26.8s-5.9-26.7-22.6-16.9
		c-16.7,9.7-46.3,37.4-46.3,37.4s24.1-25.2,25-46.4c1-21.2-15-35.3-15-35.3s15.4-0.2,18.9-10.4s-4.7-30.7-4.7-30.7s10.2,9,22,3.2
		C249.2,167.7,251.9,163.7,262.9,147.1z"/>
	<path class="st11" d="M168.4,142.1c0,0-27.7-65.3-19.8-91.6c9.3-30.9,19.1-33.8,31.9-31.2c12.7,2.5,30.7,15.7,43.2,34.6
		c11.6,17.7,12.5,38.8,12.5,38.8s-24.5,10.2-36.2,17.2C188.1,116.9,168.4,142.1,168.4,142.1z"/>
	<path class="st11" d="M420.7,121.9c0,0,110.2-39.7,132.9-4.8c18.8,28.9-30.8,52.4-41.6,60.6c-10.8,8.2-68.8,35.8-68.8,35.8
		s3.4-33.4-2.3-50.3C435.3,146.2,420.7,121.9,420.7,121.9z"/>
	<path class="st12" d="M125.3,379.8c0.3,2,1.7,2,2.6,2.1c0.9,0.1,4.7-1.8,4.1-4.6C131.4,374.8,124.8,377,125.3,379.8z"/>
	<path class="st11" d="M149.3,357.3c1.3-1.1,1.7-1.1,1-2.9c-0.5-1.2-2.4-1.5-3.6,0C146.3,355,145.5,360.6,149.3,357.3z"/>
	<path class="st13" d="M174,357.4c2,0.2,3.7-1.3,3.9-3.6c0.2-2.2-1.4-3.7-3.4-2.6C173,352,169.9,357.1,174,357.4z"/>
	<path class="st11" d="M167.2,381.7c-2.7,1.3-2.7,6.4,0.3,6.4c1.8,0,5-3,4.3-5C171.2,381.5,168.9,380.9,167.2,381.7z"/>
	<path class="st11" d="M135.6,395.4c-0.5,0.9-1.9,2.5-1.2,3.7c1.5,2.8,3.2,0.7,4.2-1.3C140.2,394.9,137,392.7,135.6,395.4z"/>
</g>
</svg>
