<?xml version="1.0" encoding="utf-8"?>
<!-- Generator: Adobe Illustrator 23.0.1, SVG Export Plug-In . SVG Version: 6.00 Build 0)  -->
<svg version="1.1" id="Layer_1" xmlns:vectornator="http://vectornator.io"
	 xmlns="http://www.w3.org/2000/svg" xmlns:xlink="http://www.w3.org/1999/xlink" x="0px" y="0px" viewBox="0 0 612 547.3"
	 style="enable-background:new 0 0 612 547.3;" xml:space="preserve">
<style type="text/css">
	
		.st0{fill-rule:evenodd;clip-rule:evenodd;fill:url(#SVGID_1_);stroke:#000000;stroke-width:3.41;stroke-linecap:round;stroke-linejoin:round;}
	.st1{fill-rule:evenodd;clip-rule:evenodd;stroke:#000000;stroke-width:4.98;stroke-linecap:round;stroke-linejoin:round;}
	
		.st2{fill-rule:evenodd;clip-rule:evenodd;fill:url(#SVGID_2_);stroke:#000000;stroke-width:5;stroke-linecap:round;stroke-linejoin:round;}
	
		.st3{fill-rule:evenodd;clip-rule:evenodd;fill:#787878;fill-opacity:0.9907;stroke:#000000;stroke-width:4.98;stroke-linecap:round;stroke-linejoin:round;}
	
		.st4{fill-rule:evenodd;clip-rule:evenodd;fill:#FFFFFF;fill-opacity:0.9907;stroke:#000000;stroke-width:4.98;stroke-linecap:round;stroke-linejoin:round;}
	.st5{fill-rule:evenodd;clip-rule:evenodd;stroke:#FFFFFF;stroke-width:4.98;stroke-linecap:round;stroke-linejoin:round;}
	
		.st6{fill-rule:evenodd;clip-rule:evenodd;fill-opacity:0.9907;stroke:#FFFFFF;stroke-width:4.98;stroke-linecap:round;stroke-linejoin:round;}
	
		.st7{fill-rule:evenodd;clip-rule:evenodd;fill:#4E3640;stroke:#000000;stroke-width:4.98;stroke-linecap:round;stroke-linejoin:round;}
</style>
<g vectornator:layerName="Layer 3">
	
		<linearGradient id="SVGID_1_" gradientUnits="userSpaceOnUse" x1="515.1647" y1="176.2639" x2="515.1647" y2="2.3479" gradientTransform="matrix(0.5977 0 0 0.5977 0 35.1061)">
		<stop  offset="0" style="stop-color:#A1A0A0"/>
		<stop  offset="0.5125" style="stop-color:#FFFFFF"/>
	</linearGradient>
	<path class="st0" d="M146.9,154.1l51.8-95.8c0,0-11.4,45-2.9,41c8.6-4,24.9-51.9,24.9-51.9s0,23.4,11,23.6
		c10.9,0.2,45.4-44.7,45.4-44.7s-26.3,39.8-21.8,44.9c4.5,5.1,50.5-45.6,60.9-48.4c9.9-2.7-16.7,21.5-15.9,35.1
		c0.8,13.6,50.6-37.7,50.6-37.7s-24.3,32.2-25.5,42.4S366.6,35,366.6,35s-10.4,30.6,0.6,34s22.4-27.7,22.4-27.7s1.9,38.3,10.4,36.2
		c8.6-2.2,11.1-29.2,11.1-29.2s55.3,64.8,57.8,74.7S305.1,294.6,305.1,294.6L146.9,154.1z"/>
	<path class="st1" d="M205.2,422c0,0,53.1,95,106.3,87.9c53.2-7.1,100.5-93.2,100.5-93.2l-63.2-5.7c0,0-23.5-8.1-40.2-6.3
		C292,406.5,205.2,422,205.2,422z"/>
</g>
<g vectornator:layerName="Layer 2">
	
		<linearGradient id="SVGID_2_" gradientUnits="userSpaceOnUse" x1="512.9073" y1="665.9094" x2="507.7193" y2="-16.5797" gradientTransform="matrix(0.5977 0 0 0.5977 0 35.1061)">
		<stop  offset="5.833330e-02" style="stop-color:#5A5A5A;stop-opacity:0.9907"/>
		<stop  offset="0.4104" style="stop-color:#000000"/>
	</linearGradient>
	<path class="st2" d="M76.4,133.9c18.8-12.5,45.5-6.5,70.5,12.7c24.9,19.2,63.9,41.5,63.9,41.5L190,164.4l28.3,12.4L205,147.4
		c0,0,21.8,16.3,28.3,20.4c6.4,4-2.7-28.2-2.7-28.2l24.1,27.7c0,0-5.3-57.1-1.3-48.2c4,8.9,14.4,50.5,14.4,50.5l11.5-58.9l6.7,57.5
		l13.3-47.3l0.8,45.1l19.7-50.1l-2.9,57.6l20.7-54.1l-6.6,52.2c0,0,21.8-64.5,22.1-54.4c0.3,10.1-8.1,58.9-8.1,58.9l24.3-47l-8,45.7
		c0,0,25.4-44.9,23.9-36c-1.4,8.9-10.2,35.8-10.2,35.8s26.5-39.1,25.4-32.3c-1,6.8-10.1,37.8-10.1,37.8s24.1-44.6,20.2-27.7
		s-6.9,27.4-6.9,27.4s24.8-31.2,21.7-21.6c-3.1,9.5-8.8,25.2-8.8,25.2l13.9-12.7c0,0,58.4-79,101.6-50.6
		c43.2,28.5,17.7,55.3,7.7,67.2c-8,9.5-32.6,25.8-32.6,25.8s28.9,73.7,30,92.7S513.6,385,513.6,385l-7.1-30.8L481.6,407l1.5-28.2
		L402.4,438l-40.7,20c0,0,3.3-15.4-7.4-26.2c-3.6-3.7-8.9-6.8-16.4-8.7c-20.6-5-52.9-0.7-65.7,11.6c-12.8,12.3-23.4,24.5-15,29.3
		c8.4,4.9-138.5-85.6-138.5-85.6l-0.5,36.1L91,349.2l-4.6,37.2c0,0-14.1-38.6-10.4-59.5s20.2-81.5,21.7-92.6s-38.3-13.7-44.3-57.4
		C50.2,154.4,57.6,146.4,76.4,133.9z"/>
</g>
<g vectornator:layerName="Layer 4">
	<path class="st3" d="M103.3,227.7c0,0-2.2-17.3,21.6-28.7c23.8-11.4,54.3-17.9,54.3-17.9s-54.8-20.3-72.9-19.1
		c-18.1,1.2-48.6,13.7-44.7,34.3C65.5,216.8,103.3,227.7,103.3,227.7z"/>
	<path class="st3" d="M423.7,181.1c0,0,45.1-28.7,73.9-31.4c28.7-2.7,54,18.6,44.7,33.6s-48,31.6-48,31.6s2-5.5-15.7-21
		C460.9,178.4,423.7,181.1,423.7,181.1z"/>
	<path class="st4" d="M304.3,395.3c0,0-18.4-49.1-19.9-81.8s5.3-121.6,22.6-122.2c17.2-0.7,18.6,95.2,16,113.9
		S304.3,395.3,304.3,395.3z"/>
	<path class="st5" d="M183.5,285.1c6.7-7,21.2-2.9,27.3,1.6s23.4,20.7,16.7,29.8c-3.1,4.2-20.3,0.7-30.6-7.1
		C188.4,302.9,176.8,292.1,183.5,285.1z"/>
	<path class="st6" d="M380.9,314.1c-4.8-8.9,11.2-27.4,22.9-34.1c11.8-6.6,20.7-9.1,25.1-2.4c4.4,6.8-1.8,18.2-9.9,23.6
		C410.8,306.7,385.7,323,380.9,314.1z"/>
	<path class="st7" d="M261.3,425.8c7.3-8.4,26.8-8.3,41.4-8.4c23-0.1,40.9-2.6,52.8,5.3c13.4,8.9,11.5,25.3,7.9,32.7
		s-22,14.5-22,14.5s14.3-21.8,5.2-24.2c-9.1-2.4-21.9,18.4-20.8,22.9s10.1-2.4,7.2,7.5c-1.9,6.4-17.8,7.5-17.8,7.5
		s-25.6-0.1-27.8-5.9c-4.1-10.6,8.5-0.2,8-7.1c-0.5-6.4-16.7-23.4-21.4-20.4c-8.7,5.6,5.3,21.7,5.3,21.7s-8.5,5.1-17.6-2.2
		C252.7,462.3,245.9,443.5,261.3,425.8z"/>
</g>
</svg>
